<svg xmlns="http://www.w3.org/2000/svg" xmlns:xlink="http://www.w3.org/1999/xlink" width="420" height="406" viewBox="0 0 420 406">
  <defs>
    <path id="a" d="M154.852 201.252C78.74 214.673 10.06 185.986 1.453 137.177.062 129.285.062 83.75 1.453.571h275.632c.004 49.715.004 79.05 0 88.005-.024 49.926-46.12 99.256-122.233 112.676z" />
    <path id="c" d="M1.554.59H76.33c.338 0 .612.274.612.612v92.775a.612.612 0 0 1-.612.613H1.554a.612.612 0 0 1-.612-.613V1.202c0-.338.274-.612.612-.612z" />
    <path id="e" d="M.416.59h76v52h-76z" />
    <path id="g" d="M1.126.856H75.9c.338 0 .612.275.612.613v92.775a.612.612 0 0 1-.612.612H1.126a.612.612 0 0 1-.613-.612V1.47c0-.338.274-.613.613-.613z" />
    <path id="i" d="M.845.714h78v53h-78z" />
    <path id="k" d="M1.126.57H75.9c.338 0 .612.275.612.613v92.776a.612.612 0 0 1-.612.612H1.126a.612.612 0 0 1-.613-.612V1.183c0-.338.274-.612.613-.612z" />
    <path id="m" d="M.845.571h76v52h-76z" />
    <path id="o" d="M.697.57h74.775c.339 0 .613.275.613.613v92.776a.612.612 0 0 1-.613.612H.697a.612.612 0 0 1-.612-.612V1.183c0-.338.274-.612.612-.612z" />
    <rect id="q" width="52" height="60.268" rx="2.571" />
    <rect id="s" width="70" height="54.241" rx="2.571" />
    <rect id="u" width="66" height="64.286" rx="2.571" />
    <rect id="w" width="84" height="72.321" rx="2.571" />
  </defs>
  <g fill="none" fill-rule="evenodd">
    <g>
      <path fill="#DBEBFA" d="M264.554 304.639c-76.223 13.44-144.977-15.158-153.568-63.875-4.758-26.989 21.62-35.481 48.642-56.93 21.756-17.268 39.82-49.622 73.818-55.616 76.223-13.44 144.978 15.157 153.568 63.875 8.59 48.717-46.237 99.106-122.46 112.546z" />
      <g transform="translate(111.143 103.571)">
        <mask id="b" fill="#fff">
          <use xlink:href="#a" />
        </mask>
        <g mask="url(#b)">
          <g transform="translate(51.915 118.839)">
            <path fill="#294A6B" fill-opacity=".15" d="M6.656 4.59h72.572c.946 0 1.714.767 1.714 1.714v91.571c0 .947-.768 1.715-1.714 1.715H6.656a1.714 1.714 0 0 1-1.714-1.715V6.304c0-.947.767-1.714 1.714-1.714z" />
            <mask id="d" fill="#fff">
              <use xlink:href="#c" />
            </mask>
            <use fill="#FFF" xlink:href="#c" />
            <path stroke="#042C4B" stroke-width=".857" d="M1.554.161H76.33c.574 0 1.04.466 1.04 1.041v92.775a1.04 1.04 0 0 1-1.04 1.041H1.554a1.04 1.04 0 0 1-1.04-1.04V1.201c0-.575.465-1.04 1.04-1.04z" />
            <g mask="url(#d)">
              <path fill="#2484C6" d="M17.656 65.59h42.572c.947 0 1.714.767 1.714 1.714v1.572c0 .946-.767 1.714-1.714 1.714H17.656a1.714 1.714 0 0 1-1.714-1.714v-1.572c0-.947.768-1.714 1.714-1.714z" />
              <path fill="#B6C4D2" d="M23.656 75.59h29.572c.947 0 1.714.767 1.714 1.714v.572c0 .946-.767 1.714-1.714 1.714H23.656a1.714 1.714 0 0 1-1.714-1.714v-.572c0-.947.768-1.714 1.714-1.714z" />
            </g>
            <g mask="url(#d)">
              <g transform="translate(.526)">
                <mask id="f" fill="#fff">
                  <use xlink:href="#e" />
                </mask>
                <use fill="#C07FFF" xlink:href="#e" />
                <path style="mix-blend-mode:multiply" fill="#000" fill-opacity=".5" fill-rule="nonzero" d="M55.654 12.143C42.105 19.7 41.217 30.3 25.95 33.333c.069-1.005-.377-1.704-1.197-1.874a1.688 1.688 0 0 0-1.625-1.203c-.774 0-1.413.504-1.625 1.203a1.709 1.709 0 0 0-1.232 1.627c.027.35.076.683.241.964-5.656.298-6.7 5.414-5.493 8.093h21.56c3.424-3.42 6.698-8.833 15.075-9.658v9.658h3.895c1.308-6.159 3.677-6.537 5.681-9.481 1.43-2.792 3.739-15.631-5.573-20.52l-.003.001z" mask="url(#f)" />
              </g>
            </g>
          </g>
          <g transform="translate(139.344 118.572)">
            <path fill="#294A6B" fill-opacity=".15" d="M6.228 4.856h72.571c.947 0 1.714.768 1.714 1.715v91.571c0 .947-.767 1.714-1.714 1.714H6.228a1.714 1.714 0 0 1-1.715-1.714V6.571c0-.947.768-1.715 1.715-1.715z" />
            <mask id="h" fill="#fff">
              <use xlink:href="#g" />
            </mask>
            <use fill="#FFF" xlink:href="#g" />
            <path stroke="#042C4B" stroke-width=".857" d="M1.126.428H75.9c.575 0 1.04.466 1.04 1.04v92.776a1.04 1.04 0 0 1-1.04 1.041H1.126a1.04 1.04 0 0 1-1.041-1.04V1.468C.085.894.55.428 1.125.428z" />
            <g mask="url(#h)">
              <path fill="#2484C6" d="M17.228 65.857h42.571c.947 0 1.715.767 1.715 1.714v1.571c0 .947-.768 1.715-1.715 1.715H17.228a1.714 1.714 0 0 1-1.714-1.715v-1.571c0-.947.767-1.714 1.714-1.714z" />
              <path fill="#B6C4D2" d="M23.228 75.857h29.571c.947 0 1.715.767 1.715 1.714v.571c0 .947-.768 1.715-1.715 1.715H23.228a1.714 1.714 0 0 1-1.714-1.715v-.571c0-.947.767-1.714 1.714-1.714z" />
            </g>
            <g mask="url(#h)">
              <g transform="translate(-1.331 -.857)">
                <mask id="j" fill="#fff">
                  <use xlink:href="#i" />
                </mask>
                <use fill="#6EC0F8" xlink:href="#i" />
                <path style="mix-blend-mode:multiply" fill="#000" fill-opacity=".75" fill-rule="nonzero" d="M49.106 7.857c1.991 0 3.605 1.568 3.605 3.5l.003 35c0 1.935-1.614 3.5-3.606 3.5H30.324c-1.99 0-3.61-1.568-3.61-3.5v-35c0-1.932 1.62-3.5 3.61-3.5h18.782zm-9.39 40.176c1.034 0 1.874-.815 1.877-1.821 0-1.007-.843-1.822-1.877-1.822-1.037 0-1.877.815-1.877 1.822 0 1.006.84 1.82 1.877 1.82zm10.998-5.822V11.997c0-.16-.13-.29-.294-.29H29.006a.292.292 0 0 0-.293.29v30.214c0 .16.133.288.293.288H50.42a.29.29 0 0 0 .294-.288z" mask="url(#j)" opacity=".784" />
              </g>
            </g>
          </g>
          <g transform="translate(139.344 8.858)">
            <rect width="76" height="95" x="4.513" y="4.571" fill="#294A6B" fill-opacity=".15" rx="1.714" />
            <mask id="l" fill="#fff">
              <use xlink:href="#k" />
            </mask>
            <use fill="#FFF" xlink:href="#k" />
            <path stroke="#042C4B" stroke-width=".857" d="M1.126.142H75.9c.575 0 1.04.466 1.04 1.041v92.776a1.04 1.04 0 0 1-1.04 1.04H1.126a1.04 1.04 0 0 1-1.041-1.04V1.183c0-.575.466-1.04 1.04-1.04z" />
            <g mask="url(#l)">
              <path fill="#2484C6" d="M17.228 65.571h42.571c.947 0 1.715.767 1.715 1.714v1.572c0 .946-.768 1.714-1.715 1.714H17.228a1.714 1.714 0 0 1-1.714-1.714v-1.572c0-.947.767-1.714 1.714-1.714z" />
              <path fill="#B6C4D2" d="M23.228 75.571h29.571c.947 0 1.715.767 1.715 1.714v.572c0 .946-.768 1.714-1.715 1.714H23.228a1.714 1.714 0 0 1-1.714-1.714v-.572c0-.947.767-1.714 1.714-1.714z" />
            </g>
            <g mask="url(#l)">
              <g transform="translate(-.331)">
                <mask id="n" fill="#fff">
                  <use xlink:href="#m" />
                </mask>
                <use fill="#EBC617" xlink:href="#m" />
                <path style="mix-blend-mode:multiply" fill="#000" fill-rule="nonzero" d="M34.565 21.447h-.004c1.138.194 3.793.194 4.931 0 7.97-2.143 15.745-2.728 25.421-1.559 3.035.39 2.656 5.065-.19 5.65-.758 2.145-1.137 6.041-2.086 8.379-2.655 5.844-14.228 5.065-18.59 2.143-2.845-1.756-3.604-5.847-4.742-8.964-.57-1.754-3.983-1.754-4.553 0-.948 3.12-1.896 7.21-4.741 8.964-4.363 2.922-15.935 3.701-18.401-2.143-1.138-2.34-1.518-6.236-2.276-8.38-2.845-.584-3.225-5.26-.19-5.649 9.676-1.169 17.452-.584 25.421 1.559zm-14.987.194c-3.034 0-7.207.585-7.779 2.923-1.138 3.701.948 10.717 5.88 10.912-2.845-1.559-5.121-7.014-4.173-10.133.57-1.948 3.414-3.117 6.07-3.701h.002zm28.836.195c-2.845.195-6.638.974-7.207 3.117-.949 3.702 1.327 10.133 6.07 10.133-2.656-1.364-5.312-6.429-4.363-9.548.38-1.754 3.035-3.118 5.5-3.702z" mask="url(#n)" opacity=".7" />
              </g>
            </g>
          </g>
          <g transform="translate(52.772 8.858)">
            <rect width="76" height="95" x="4.085" y="4.571" fill="#294A6B" fill-opacity=".15" rx="1.714" />
            <mask id="p" fill="#fff">
              <use xlink:href="#o" />
            </mask>
            <use fill="#FFF" xlink:href="#o" />
            <path stroke="#042C4B" stroke-width=".857" d="M.697.142h74.775c.575 0 1.041.466 1.041 1.041v92.776a1.04 1.04 0 0 1-1.04 1.04H.696a1.04 1.04 0 0 1-1.04-1.04V1.183c0-.575.465-1.04 1.04-1.04z" />
            <path fill="#82BB0F" d="M41.143 44.714h10.286v6.857H41.143v10.286h-6.857V51.571H24v-6.857h10.286V34.43h6.857v10.285z" mask="url(#p)" />
          </g>
        </g>
      </g>
    </g>
    <g>
      <g transform="translate(5.143 99.429)">
        <mask id="r" fill="#fff">
          <use xlink:href="#q" />
        </mask>
        <use fill="#FFF" xlink:href="#q" />
        <rect width="52.857" height="61.125" x="-.429" y="-.429" stroke="#89AAC5" stroke-width=".857" rx="2.571" />
        <path fill="#EFF7FE" d="M0 0h52.857v12H0z" mask="url(#r)" />
        <path fill="#B7CDE1" d="M6 8.571A2.571 2.571 0 1 1 6 3.43 2.571 2.571 0 0 1 6 8.57zm7.714 0a2.571 2.571 0 1 1 0-5.142 2.571 2.571 0 0 1 0 5.142zm7.715 0a2.571 2.571 0 1 1 0-5.142 2.571 2.571 0 0 1 0 5.142z" mask="url(#r)" />
        <path style="mix-blend-mode:multiply" fill="#65778A" fill-rule="nonzero" d="M27.87 28.553l2.75-2.916-1.677-2.159H23.63l-1.835 2.38 3.106 2.786a10.188 10.188 0 0 0-8.434 10.046c0 5.636 4.554 10.202 10.172 10.202 5.617 0 10.17-4.571 10.17-10.207.001-5.219-3.903-9.521-8.94-10.132zM26.6 46.805c-4.45 0-8.057-3.62-8.057-8.084 0-4.464 3.607-8.084 8.057-8.084s8.057 3.62 8.057 8.084c0 4.465-3.607 8.084-8.057 8.084z" />
      </g>
      <g transform="translate(17.143 4.286)">
        <mask id="t" fill="#fff">
          <use xlink:href="#s" />
        </mask>
        <use fill="#FFF" xlink:href="#s" />
        <rect width="70.857" height="55.098" x="-.429" y="-.429" stroke="#89AAC5" stroke-width=".857" rx="2.571" />
        <path fill="#EFF7FE" d="M0 0h70.857v12H0z" mask="url(#t)" />
        <path fill="#B7CDE1" d="M6 8.571A2.571 2.571 0 1 1 6 3.43 2.571 2.571 0 0 1 6 8.57zm7.714 0a2.571 2.571 0 1 1 0-5.142 2.571 2.571 0 0 1 0 5.142zm7.715 0a2.571 2.571 0 1 1 0-5.142 2.571 2.571 0 0 1 0 5.142z" mask="url(#t)" />
        <path fill="#445669" fill-rule="nonzero" d="M32.587 26.26h-.004c.998.167 3.324.167 4.321 0 6.982-1.825 13.796-2.323 22.273-1.327 2.66.332 2.327 4.316-.166 4.814-.665 1.827-.997 5.147-1.828 7.14-2.327 4.98-12.466 4.315-16.288 1.825-2.493-1.496-3.158-4.982-4.155-7.638-.499-1.494-3.49-1.494-3.989 0-.83 2.658-1.662 6.144-4.154 7.638-3.823 2.49-13.962 3.154-16.122-1.826-.998-1.993-1.33-5.313-1.995-7.14-2.493-.497-2.825-4.481-.166-4.813 8.477-.996 15.291-.498 22.273 1.328zm-13.13.167c-2.66 0-6.316.498-6.817 2.49-.997 3.154.831 9.131 5.152 9.298-2.493-1.328-4.487-5.976-3.656-8.634.499-1.66 2.991-2.656 5.318-3.154h.002zm25.264.166c-2.493.166-5.816.83-6.315 2.656-.83 3.154 1.164 8.633 5.318 8.633-2.326-1.162-4.653-5.477-3.822-8.135.332-1.494 2.659-2.656 4.82-3.154z" opacity=".85" />
      </g>
      <g transform="translate(125.143 18)">
        <mask id="v" fill="#fff">
          <use xlink:href="#u" />
        </mask>
        <use fill="#FFF" xlink:href="#u" />
        <rect width="66.857" height="65.143" x="-.429" y="-.429" stroke="#89AAC5" stroke-width=".857" rx="2.571" />
        <path fill="#EFF7FE" d="M0 0h66.857v12H0z" mask="url(#v)" />
        <path fill="#B7CDE1" d="M6 8.571A2.571 2.571 0 1 1 6 3.43 2.571 2.571 0 0 1 6 8.57zm7.714 0a2.571 2.571 0 1 1 0-5.142 2.571 2.571 0 0 1 0 5.142zm7.715 0a2.571 2.571 0 1 1 0-5.142 2.571 2.571 0 0 1 0 5.142z" mask="url(#v)" />
        <path fill="#65778A" fill-rule="nonzero" d="M47.591 21.827c-11.928 6.773-12.71 16.276-26.15 18.996.06-.901-.333-1.528-1.054-1.68a1.49 1.49 0 0 0-1.43-1.078 1.49 1.49 0 0 0-1.431 1.078A1.528 1.528 0 0 0 16.44 40.6c.024.314.067.613.212.864-4.98.268-5.899 4.854-4.836 7.256h18.98c3.015-3.066 5.898-7.92 13.273-8.658v8.658h3.429c1.151-5.522 3.236-5.86 5.001-8.5 1.26-2.503 3.292-14.013-4.907-18.395h-.002z" />
      </g>
      <g transform="translate(46.286 52.286)">
        <mask id="x" fill="#fff">
          <use xlink:href="#w" />
        </mask>
        <use fill="#FFF" xlink:href="#w" />
        <rect width="84.857" height="73.179" x="-.429" y="-.429" stroke="#89AAC5" stroke-width=".857" rx="2.571" />
        <path fill="#EFF7FE" d="M0 0h84.857v12H0z" mask="url(#x)" />
        <path fill="#B7CDE1" d="M6 8.571A2.571 2.571 0 1 1 6 3.43 2.571 2.571 0 0 1 6 8.57zm7.714 0a2.571 2.571 0 1 1 0-5.142 2.571 2.571 0 0 1 0 5.142zm7.715 0a2.571 2.571 0 1 1 0-5.142 2.571 2.571 0 0 1 0 5.142z" mask="url(#x)" />
        <path fill="#65778A" fill-rule="nonzero" d="M51.838 21.429c1.942 0 3.517 1.514 3.517 3.38l.003 33.81c0 1.87-1.575 3.382-3.518 3.382H33.52C31.58 62 30 60.486 30 58.62V24.81c0-1.867 1.58-3.381 3.52-3.381h18.318zm-9.157 38.81c1.008 0 1.828-.788 1.83-1.76 0-.972-.822-1.76-1.83-1.76-1.012 0-1.831.788-1.831 1.76s.82 1.76 1.83 1.76zm10.725-5.624V25.428a.283.283 0 0 0-.286-.281H32.235a.283.283 0 0 0-.286.28v29.188c0 .154.13.278.286.278H53.12a.28.28 0 0 0 .286-.278z" />
      </g>
    </g>
  </g>
</svg>